 http://www.imdb.com/title/tt0372784/

Source: Batman.Begins.2005.720p.BluRay.DTS.x264-ESiR Thanks!

Subs: Arabic, Brazilian, Croatian, Czech, Danish, Dutch, English, Estonian, Finnish, French, German, Greek, Hebrew, Hungarian, Latvian, Lithuanian, Norwegian, Polish, Portuguese, Romanian, Russian, Serbian, Slovenian, Spanish and Swedish.

Sample and Screens included.

General
Complete name                            : Batman Begins-720p MP4 AAC x264 BRRip 2005-CC.mp4
Format                                   : MPEG-4
Format profile                           : Base Media
Codec ID                                 : isom
File size                                : 2.96 GiB
Duration                                 : 2h 20mn
Overall bit rate mode                    : Variable
Overall bit rate                         : 3 029 Kbps
Encoded date                             : UTC 2012-09-22 13:36:54

Video
ID                                       : 1
Format                                   : AVC
Format/Info                              : Advanced Video Codec
Format profile                           : High@L3.1
Format settings, CABAC                   : Yes
Format settings, ReFrames                : 5 frames
Codec ID                                 : avc1
Codec ID/Info                            : Advanced Video Coding
Duration                                 : 2h 20mn
Bit rate                                 : 2 676 Kbps
Maximum bit rate                         : 24.9 Mbps
Width                                    : 1 280 pixels
Height                                   : 528 pixels
Display aspect ratio                     : 2.40:1
Original display aspect ratio            : 2.40:1
Frame rate mode                          : Variable
Frame rate                               : 23.976 fps
Minimum frame rate                       : 15.997 fps
Maximum frame rate                       : 24.390 fps
Color space                              : YUV
Chroma subsampling                       : 4:2:0
Bit depth                                : 8 bits
Scan type                                : Progressive
Bits/(Pixel*Frame)                       : 0.165
Stream size                              : 2.58 GiB (87%)
Writing library                          : x264 core 112

Audio
ID                                       : 2
Format                                   : AAC
Format/Info                              : Advanced Audio Codec
Format profile                           : LC
Codec ID                                 : 40
Duration                                 : 2h 20mn
Bit rate mode                            : Variable
Bit rate                                 : 384 Kbps
Maximum bit rate                         : 724 Kbps
Channel(s)                               : 6 channels
Channel positions                        : Front: L C R, Side: L R, LFE
Sampling rate                            : 48.0 KHz
Compression mode                         : Lossy
Delay relative to video                  : 83ms
Stream size                              : 384 MiB (13%)
Language                                 : English

Enjoy...

Requested by cmptrluvr's. 

Coming up soon: The Dark Knight, Taking of Pelham 123, Down by Law, M and more...